<svg xmlns="http://www.w3.org/2000/svg">
	<symbol id="shape-24" viewBox="0 0 47 52">
		<path d="M41.8 13.4c-.9-1.1-2.4-1.3-3.5-.4s-1.2 2.5-.4 3.6C40.6 20 42 24 42 28.3c0 10.3-8.3 18.6-18.5 18.6S5 38.6 5 28.3c0-9.6 7.2-17.5 16.5-18.5l-.7 3.7c-.1.5.1 1.1.5 1.4.4.3 1 .4 1.5.1l8.6-4.7c.4-.2.6-.6.7-1 .1-.4 0-.8-.3-1.2L25.7.4c-.3-.4-.9-.6-1.4-.5-.5.1-.9.6-1 1.1l-.7 3.5C10 5.1 0 15.6 0 28.3 0 41.4 10.5 52 23.5 52S47 41.4 47 28.3c0-5.4-1.8-10.7-5.2-14.9z"/>
		<path d="M13.1 32l-1.8 1.7c-.2.2-.3.5-.3.8v1.3c0 .6.5 1 1 1h9.8c.6 0 1-.5 1-1V34c0-.6-.5-1-1-1h-4.4l.8-.7c2.6-2.3 4.3-4.4 4.3-7.1 0-3.2-2.3-5.3-5.9-5.3-1.8 0-3.5.5-4.9 1.4-.4.3-.6.8-.4 1.2l.5 1.4c.1.3.3.5.6.6.3.1.6.1.8-.1.9-.5 1.7-.8 2.5-.8 2 0 2.3 1.2 2.3 2 .1 1.6-1.5 3.4-4.9 6.4zm15.8-11.4l-5.7 9.2c-.1.2-.2.4-.2.6v1.5c0 .6.5 1 1 1h6v2.8c0 .6.5 1 1 1h2.1c.6 0 1-.5 1-1v-2.8h.9c.6 0 1-.5 1-1v-1.4c0-.6-.5-1-1-1h-.9v-8.3c0-.6-.5-1-1-1h-3.5c-.2 0-.6.1-.7.4zm1.1 8.9h-2.6l2.6-4.7v4.7z"/>
	</symbol>
	<symbol id="shape-manufacture" viewBox="0 0 52 49">
		<path d="M51.8 28.6c-.6-1.4-2.2-2.1-3.6-1.6l-25.6 9.7L12.5 11c-.3-.8-.9-1.4-1.7-1.6L3.6 7.2C3 7 2.4 7 1.8 7.2 1 7.5.4 8.2.1 9c-.5 1.4.3 3 1.8 3.4l5.9 1.8 9.4 23.9c-2.1 1.6-2.9 4.4-1.9 7 1.2 3.1 4.9 4.7 8.1 3.5 3.1-1.2 4.7-4.6 3.7-7.6l23.2-8.8c1.4-.6 2.1-2.2 1.5-3.6zM22.1 45.5c-1.5.6-3.1-.2-3.7-1.6-.6-1.4.2-3 1.6-3.6 1.5-.6 3.1.2 3.7 1.6.6 1.4-.1 3-1.6 3.6z"/>
		<path d="M24.4 29.9c.3.7 1 1 1.7.7l20.7-7.9c.7-.3 1-1 .7-1.7L39.5.7c-.3-.7-1-1-1.7-.7l-7.5 2.9 3 7.7-5.7 2.2-3-7.7L17.1 8c-.7.3-1 1-.7 1.7l8 20.2zm14.8-10.4l.8-3c0-.2.2-.3.3-.4.2-.1.4 0 .5.1l2.6 1.7c.2.1.3.3.2.5 0 .2-.2.4-.3.4l-.7.3.8 2.1c.1.3 0 .6-.3.7l-.9.4c-.3.1-.6 0-.7-.3l-.8-2.1-.7.2c-.2.1-.4 0-.6-.1-.1-.1-.2-.3-.2-.5z"/>
	</symbol>
	<symbol id="shape-place" viewBox="0 0 46 45">
		<path d="M33.6 27.9c-.7 1.2-1.5 2.4-2.3 3.6C38.4 32.6 42 34.8 42 36c0 1.5-6.5 5.1-19 5.1C10.4 41 4 37.5 4 36c0-1.1 3.7-3.4 10.8-4.5-.8-1.3-1.6-2.5-2.3-3.6C5.4 29.2 0 31.9 0 36c0 5.9 11.6 9 23 9s23-3.1 23-9c0-4.1-5.4-6.8-12.4-8.1z"/>
		<path d="M23 0C15.6 0 9.5 6 9.5 13.5c0 5.3 6.9 15.6 10.9 20.9.6.8 1.6 1.3 2.6 1.3s2-.5 2.6-1.3c3.9-5.4 10.9-15.6 10.9-20.9C36.5 6 30.5 0 23 0zm0 21.9c-4.4 0-8-3.6-8-8s3.6-8 8-8 8 3.6 8 8-3.5 8-8 8z"/>
		<path d="M23 9c-2.7 0-4.9 2.2-4.9 4.9s2.2 4.9 4.9 4.9 4.9-2.2 4.9-4.9S25.7 9 23 9z"/>
	</symbol>
	<symbol id="shape-stars" viewBox="0 0 58.7 36.8">
		<path d="M2.5 14.5v.1c0 .8.2 1.5.7 2 .7.7 1.8.8 2.9.4l3-1.6L12 17h.1c.4.2.8.3 1.2.3.7 0 1.3-.2 1.7-.7.5-.5.7-1.2.7-2l-.4-3.3L17.4 9l.1-.1c.6-.8.7-1.6.5-2.4-.3-.8-1-1.4-1.9-1.6l-3.4-.5-1.4-2.8-.1-.2C10.7.5 9.9 0 9 0c-.8 0-1.6.4-2.1 1.2l-1.8 3-3 .5-.1.1C1.1 5 .4 5.6.1 6.4c-.2.8-.1 1.7.5 2.5l2.3 2.4-.4 3.2zM7 6.9l2-3.5 1.7 3.5 3.9.6-2.6 2.6.4 3.7L9.1 12l-3.4 1.9.4-3.7-2.6-2.7L7 6.9zm30.8 2c.6-.8.7-1.6.5-2.4-.3-.8-1-1.4-1.9-1.6L33 4.2l-1.4-2.8-.1-.2C31 .5 30.2 0 29.3 0c-.8 0-1.6.4-2.2 1.2l-1.8 3.1-2.9.5h-.2c-.9.3-1.6.9-1.9 1.7-.3.8-.1 1.7.5 2.4l2.3 2.4-.4 3.2v.1c0 .8.2 1.5.7 2 .7.7 1.8.9 2.9.4l3-1.6 2.9 1.6h.1c.4.2.8.3 1.2.3.7 0 1.3-.2 1.7-.7.5-.5.7-1.2.7-2l-.4-3.3L37.7 9l.1-.1zm-5.5 1.3l.4 3.7-3.4-1.9-3.4 1.9.4-3.7-2.6-2.6 3.5-.6 2-3.5L31 6.9l3.9.6-2.6 2.7zm24.4-5.4l-3.4-.5-1.4-2.8-.1-.2C51.3.5 50.5 0 49.6 0c-.8 0-1.6.4-2.2 1.2l-1.8 3.1-2.9.5h-.2c-.9.2-1.5.8-1.8 1.6-.3.8-.1 1.7.5 2.4l2.3 2.4-.4 3.2v.1c0 .8.2 1.5.7 2 .7.7 1.8.9 2.9.4l3-1.6 2.9 1.6h.1c.4.2.8.3 1.2.3.7 0 1.3-.2 1.7-.7.5-.5.7-1.2.7-2l-.4-3.3L58 9l.1-.1c.6-.8.7-1.6.5-2.4-.3-.9-1-1.5-1.9-1.7zm-4.1 5.4l.4 3.7-3.4-1.9-3.4 1.9.4-3.7L44 7.6l3.5-.6 2-3.5L51.2 7l3.9.6-2.5 2.6zm-34.4 9.4c-.8 0-1.6.4-2.2 1.2l-1.8 3.1-2.9.5h-.2c-.9.3-1.6.9-1.9 1.7-.3.8-.1 1.7.5 2.4l2.3 2.4-.3 3.1v.1c0 .8.2 1.5.7 2 .7.7 1.8.9 2.9.4l3-1.6 2.9 1.5h.1c.4.2.8.3 1.2.3.7 0 1.3-.2 1.7-.7.5-.5.7-1.2.7-2l-.4-3.4 2.2-2.2.1-.1c.6-.8.7-1.6.5-2.4-.3-.8-1-1.4-1.9-1.6l-3.4-.5-1.5-2.8-.1-.2c-.5-.8-1.3-1.2-2.2-1.2zm5.6 7.5l-2.6 2.6.4 3.7-3.4-1.9-3.4 1.9.4-3.7-2.6-2.6 3.5-.6 2-3.5 1.7 3.5 4 .6zm23.7-2.7l-3.4-.5-1.4-2.9-.1-.2c-.5-.8-1.3-1.3-2.2-1.3-.8 0-1.6.4-2.2 1.2l-1.8 3.1-2.9.5h-.2c-.9.3-1.6.9-1.9 1.7-.3.8-.1 1.7.5 2.4l2.3 2.4-.3 3.2v.1c0 .8.2 1.5.7 2 .7.7 1.8.9 2.9.4l3-1.6 2.9 1.5h.1c.4.2.8.3 1.2.3.7 0 1.3-.2 1.7-.7.5-.5.7-1.2.7-2l-.4-3.4 2.2-2.2.1-.1c.6-.8.7-1.6.5-2.4-.4-.7-1.1-1.3-2-1.5zm-4.1 5.3l.4 3.7-3.4-1.9-3.4 1.9.4-3.7-2.6-2.6 3.5-.6 2-3.5 1.7 3.5 3.9.6-2.5 2.6z"/>
	</symbol>
	<symbol id="shape-stats" viewBox="0 0 62 48">
		<path d="M60.8 41L50.3 30.5c-.8-.8-1.8-1.2-2.8-1.2 3.9-5.9 3.3-13.9-1.9-19.1-5.9-5.9-15.5-5.9-21.4 0s-5.9 15.5 0 21.4c5.2 5.2 13.2 5.8 19.1 1.9 0 1 .4 2 1.2 2.8L55 46.8c1.6 1.6 4.2 1.6 5.8 0 1.6-1.6 1.6-4.2 0-5.8zM42.3 28.3c-4.1 4.1-10.7 4.1-14.8 0-4.1-4.1-4.1-10.7 0-14.8 4.1-4.1 10.7-4.1 14.8 0s4.1 10.7 0 14.8zM5.9 13.8H3.1c-1.7 0-3.1 1.4-3.1 3.1v16.9c0 1.7 1.4 3.1 3.1 3.1h2.8c1.7 0 3.1-1.4 3.1-3.1v-17c-.1-1.7-1.4-3-3.1-3z"/>
		<path d="M22.7 9.1v-6c0-1.7-1.4-3.1-3.1-3.1h-2.8c-1.7 0-3.1 1.4-3.1 3.1v30.6c0 1.7 1.4 3.1 3.1 3.1h2.8c1.7 0 3.1-1.4 3.1-3.1v-1.5c-3-3.1-4.6-7.2-4.6-11.5 0-4.4 1.6-8.5 4.6-11.6zm10.7 4.7h-2.8c-1.7 0-3.1 1.4-3.1 3.1V26c.3.4.6.7.9 1 1.7 1.7 3.9 2.6 6.3 2.6.6 0 1.2-.1 1.7-.2V16.8c.1-1.7-1.3-3-3-3z"/>
	</symbol>
	<symbol id="shape-worker" viewBox="0 0 52 51">
		<path d="M5.1 35.9c-.1.5-5 12.9-5 12.9-.1.2-.1.4-.1.6 0 .9.7 1.6 1.6 1.6h4.6c.9 0 1.6-.7 1.6-1.6 0-.9-.7-1.6-1.6-1.6h-.9c1.5-3.4 4.3-9.6 4.4-10.1.1-.6.2-2.3.2-2.3l-4.5-4.7s-.2 4.7-.3 5.2zM8.4 6.5v.2C8 9.7 10 12.6 13 13c3 .4 5.8-1.7 6.3-4.7.1-.5.1-.9 0-1.4h.6c.4 0 .7 0 .7-.5v-.6c0-.5-.3-.4-.6-.5h-.7s-.6-6-6.3-5.2c-1.7.2-2.9.9-3.6 1.7 1.5-.7 3.2-.9 4.7-.7 1.4.2 2.5.9 3.2 2-.5-.4-1-.7-1.6-.9-.6-.4-1.2-.6-1.7-.6-1.7-.3-3.8.2-5.3 1.1-1 1.8-.8 3.8-.8 3.8h.5zm1 .4c0-.1 0-.2.1-.3 2.3.1 6.5.3 8.8.3.1.4.1.8 0 1.3-.4 2.5-2.7 4.2-5.1 3.9-2.5-.4-4.2-2.7-3.8-5.2zM32.5 41H51v2.2H32.5V41zm-.1-3.8H51v2.2H32.4v-2.2zm0-3.5H51v2.2H32.4v-2.2zm.1-3.3H51v2.2H32.5v-2.2z"/>
		<path d="M52 44.4H31.1V26.8c0-.6-.5-1.1-1.1-1.1h-4c-.1-.2-.2-.3-.3-.4 0 0-11-10.7-11.8-10.9-.8-.2-3.7-.9-4.1-1-.4-.1-1-.1-1.3.7-.1.9-3.8 12.8-3.1 14.4.8 1.8 7.6 8 7.9 8.7.3.6.2 10.4.2 12.2v.3c.1.8.7 1.4 1.6 1.4h4.6c.9 0 1.6-.7 1.6-1.6 0-.9-.7-1.6-1.6-1.6h-1.9c.2-3.5.5-11.2.3-12.1-.3-1-5.1-6.8-5.1-6.8l2.2-7.8 8.2 6.6c.3.3.7.5 1.2.5.4 0 .9-.2 1.2-.4H29v18.9h2c-.3.4-.4.9-.4 1.5 0 1.5 1.3 2.8 2.8 2.8 1.5 0 2.8-1.2 2.8-2.8 0-.5-.2-1-.4-1.5H45c-.2.4-.3 1-.3 1.4 0 1.5 1.3 2.8 2.8 2.8 1.5 0 2.8-1.2 2.8-2.8 0-.4-.1-1-.3-1.4h2v-2.4zm-18.6 5c-.7 0-1.2-.5-1.2-1.2s.5-1.2 1.2-1.2 1.2.5 1.2 1.2-.5 1.2-1.2 1.2zm14.1.1c-.7 0-1.3-.6-1.3-1.2 0-.3.1-.6.3-.8.1-.1.3-.3.4-.3.2-.1.3-.1.5-.1.7 0 1.3.6 1.3 1.2s-.5 1.2-1.2 1.2z"/>
	</symbol>
	<symbol id="shape-logo" viewBox="0 0 41.2 42.9">
		<path fill-rule="evenodd" clip-rule="evenodd" d="M0 0v16.8h11l9.7-5 8.9 5h11.7V.3L0 0zm0 25h10.7v4.7h18.8V25h11.7v17.9H.3L0 25z"/>
	</symbol>
	<symbol id="shape-search" viewBox="0 0 18 18">
		<path d="M12.5 11.8c1.2-1.2 1.9-2.9 1.9-4.8 0-3.9-3.2-7-7.2-7S0 3.1 0 7s3.2 7 7.2 7c1.6 0 3.1-.5 4.3-1.4l5.4 5.2c.1.1.3.2.5.2s.3-.1.5-.2c.3-.2.3-.6 0-.9l-5.4-5.1zM1.3 7c0-3.2 2.6-5.7 5.9-5.7 3.3 0 5.9 2.6 5.9 5.7 0 3.2-2.6 5.7-5.9 5.7-3.2 0-5.9-2.5-5.9-5.7z"/>
	</symbol>
	<symbol id="shape-article" viewBox="0 0 20 20">
		<path d="M18.1 0H4.4c-1 0-1.9.8-1.9 1.9v1.3h-.6C.8 3.1 0 4 0 5v12.5C0 18.9 1.1 20 2.5 20h15c1.4 0 2.5-1.1 2.5-2.5V1.9C20 .8 19.2 0 18.1 0zm.7 17.5c0 .7-.6 1.3-1.2 1.3h-15c-.7 0-1.2-.6-1.2-1.3V5c0-.3.3-.6.6-.6h.6v12.5c0 .3.3.6.6.6s.6-.3.6-.6v-15c0-.3.3-.6.6-.6h13.8c.3 0 .6.3.6.6v15.6zm-6.6-9.4h5c.2 0 .3-.1.3-.3 0-.2-.1-.3-.3-.3h-5c-.2 0-.3.1-.3.3 0 .2.1.3.3.3zm0-1.8h5c.2 0 .3-.1.3-.3 0-.2-.1-.3-.3-.3h-5c-.2 0-.3.1-.3.3 0 .1.1.3.3.3zm0-1.9h5c.2 0 .3-.1.3-.3 0-.2-.1-.3-.3-.3h-5c-.2 0-.3.1-.3.3 0 .1.1.3.3.3z"/>
		<path d="M10.3 16.9h-5c-.2 0-.3.1-.3.3 0 .2.1.3.3.3h5c.2 0 .3-.1.3-.3 0-.2-.1-.3-.3-.3zm0-1.9h-5c-.2 0-.3.1-.3.3 0 .2.1.3.3.3h5c.2 0 .3-.1.3-.3 0-.2-.1-.3-.3-.3zm0-1.9h-5c-.2 0-.3.1-.3.3 0 .2.1.3.3.3h5c.2 0 .3-.1.3-.3 0-.1-.1-.3-.3-.3zm6.9 3.8h-5c-.2 0-.3.1-.3.3 0 .2.1.3.3.3h5c.2 0 .3-.1.3-.3 0-.2-.1-.3-.3-.3zm0-1.9h-5c-.2 0-.3.1-.3.3 0 .2.1.3.3.3h5c.2 0 .3-.1.3-.3 0-.2-.1-.3-.3-.3zm0-1.9h-5c-.2 0-.3.1-.3.3 0 .2.1.3.3.3h5c.2 0 .3-.1.3-.3 0-.1-.1-.3-.3-.3zm0-3.7H5.3c-.2 0-.3.1-.3.3 0 .2.1.3.3.3h11.9c.2 0 .3-.1.3-.3 0-.2-.1-.3-.3-.3zm0 1.9H5.3c-.2 0-.3.1-.3.3 0 .2.1.3.3.3h11.9c.2 0 .3-.1.3-.3 0-.2-.1-.3-.3-.3zM5.6 8.1H10c.3 0 .6-.3.6-.6V3.1c0-.3-.3-.6-.6-.6H5.6c-.3 0-.6.3-.6.6v4.4c0 .3.3.6.6.6zm.7-4.3h3.1v3.1H6.3V3.8z"/>
	</symbol>
	<symbol id="shape-calc" viewBox="0 0 14 20">
		<path d="M12.4 0H1.6C.7 0 0 .7 0 1.6v16.8c0 .9.7 1.6 1.6 1.6h10.8c.9 0 1.6-.7 1.6-1.6V1.6c0-.9-.7-1.6-1.6-1.6zM2.1 3.7c0-.7.5-1.2 1.2-1.2h7.3c.7 0 1.2.6 1.2 1.2V5c0 .7-.5 1.2-1.2 1.2H3.3c-.6 0-1.2-.5-1.2-1.2V3.7zm2.5 13.1c0 .4-.3.7-.7.7H2.7c-.4 0-.7-.3-.7-.7v-1.3c0-.4.3-.7.7-.7h1.2c.4 0 .7.3.7.7v1.3zm0-3.7c0 .4-.3.7-.7.7H2.7c-.4 0-.7-.3-.7-.7v-1.3c0-.4.3-.8.7-.8h1.2c.4 0 .7.3.7.7v1.4zm0-3.8c0 .4-.3.7-.7.7H2.7c-.4.1-.7-.3-.7-.7V8.1c0-.4.3-.7.7-.7h1.2c.4 0 .7.3.7.7v1.2zm3.7 7.5c0 .4-.3.7-.7.7H6.4c-.4 0-.7-.3-.7-.7v-1.3c0-.4.3-.7.7-.7h1.2c.4 0 .7.3.7.7v1.3zm0-3.7c0 .4-.3.7-.7.7H6.4c-.4 0-.7-.3-.7-.7v-1.3c0-.4.3-.8.7-.8h1.2c.4 0 .7.3.7.7v1.4zm0-3.8c0 .4-.3.7-.7.7H6.4c-.4 0-.7-.3-.7-.7V8.1c0-.4.3-.7.7-.7h1.2c.4 0 .7.3.7.7v1.2zm3.7 7.5c0 .4-.3.7-.7.7h-1.2c-.4 0-.7-.3-.7-.7v-1.3c0-.4.3-.7.7-.7h1.2c.4 0 .7.3.7.7v1.3zm0-3.7c0 .4-.3.7-.7.7h-1.2c-.4 0-.7-.3-.7-.7v-1.3c0-.4.3-.7.7-.7h1.2c.4 0 .7.3.7.7v1.3zm0-3.8c0 .4-.3.7-.7.7h-1.2c-.4 0-.7-.3-.7-.7V8.1c0-.4.3-.7.7-.7h1.2c.4 0 .7.3.7.7v1.2z"/>
	</symbol>
	<symbol id="shape-delivery" viewBox="0 0 22.1 18.2">
		<path d="M7.8 0H3.9c-.7 0-1.2.5-1.2 1.2v6.3H1.5C.7 7.5 0 8.2 0 9v5.3c.5-.9 1.5-1.4 2.5-1.4 1.6 0 2.8 1.2 2.9 2.8H11c.1-1.5 1.4-2.8 2.9-2.8.6 0 1.1.2 1.5.4L9.4 1c-.3-.6-1-1-1.6-1zm3.8 9.9H4.9c-.2 0-.3-.1-.3-.3V2.2c0-.2.1-.3.3-.3h2.9c.1 0 .2 0 .3.1l3.8 7.5c.1.2 0 .4-.3.4zm-9.1 3.6c-1.3 0-2.4 1.1-2.4 2.4 0 1.3 1.1 2.4 2.4 2.4 1.3 0 2.4-1.1 2.4-2.4 0-1.4-1.1-2.4-2.4-2.4zm0 3.5c-.6 0-1.2-.5-1.2-1.2s.5-1.2 1.2-1.2 1.2.5 1.2 1.2S3.2 17 2.5 17zm19.6-2.6v1.2H17c-.1-1-.6-1.9-1.4-2.3V1.2h1.2v13.2h5.3zm-8-.9c-1.3 0-2.4 1.1-2.4 2.4 0 1.3 1.1 2.4 2.4 2.4 1.3 0 2.4-1.1 2.4-2.4-.1-1.4-1.1-2.4-2.4-2.4zm0 3.5c-.6 0-1.2-.5-1.2-1.2s.5-1.2 1.2-1.2c.6 0 1.2.5 1.2 1.2-.1.7-.6 1.2-1.2 1.2z"/>
	</symbol>
	<symbol id="shape-list" viewBox="0 0 16 19">
		<path d="M14.9 2.2h-.6v13.6c0 .9-.8 1.6-1.7 1.6H2.3v.6c0 .6.5 1 1.1 1H15c.6 0 1.1-.5 1.1-1V3.2c-.1-.6-.6-1-1.2-1z"/>
		<path d="M6.9 16.8h5.8c.6 0 1.1-.5 1.1-1V1c0-.6-.5-1-1.1-1H4.9v3.3c0 .8-.7 1.5-1.5 1.5H0v11c0 .6.5 1 1.1 1h5.8zm.2-3.5H3.3c-.3 0-.5-.2-.5-.5s.2-.5.5-.5h3.8c.3 0 .5.2.5.5s-.2.5-.5.5zm3.8-2.5H3.3c-.3 0-.5-.2-.5-.5s.2-.5.5-.5h7.6c.3 0 .5.2.5.5 0 .2-.3.5-.5.5zM3.3 7.1h7.6c.3 0 .5.2.5.5s-.2.5-.5.5H3.3c-.3 0-.5-.3-.5-.5 0-.3.2-.5.5-.5zM.5 4.2h3c.5 0 .9-.4.9-.9V.5C4.3.2 4.1 0 3.9 0c-.1 0-.2 0-.3.1L.1 3.5c-.2.2 0 .7.4.7z"/>
	</symbol>
	<symbol id="shape-mail" viewBox="0 0 15 10">
		<path d="M0 0v10h15V0H0zm7.5 6.2L1.3.7h12.3L7.5 6.2zM5 5L.7 8.8V1.2L5 5zm.6.5l1.9 1.7 1.9-1.7 4.3 3.8H1.3l4.3-3.8zM9.9 5l4.3-3.8v7.6L9.9 5z"/>
	</symbol>
	<symbol id="shape-man" viewBox="0 0 16 20">
		<path d="M8 10c2.6 0 4.7-2.2 4.7-5S10.6 0 8 0 3.3 2.2 3.3 5s2.1 5 4.7 5zm0-1.2c-.7 0-1.3-.6-1.3-1.3h2.7c-.1.7-.7 1.3-1.4 1.3zM4.9 4.6c.7.4 2 .3 3.1-.5.6-.4 1-.9 1.3-1.3 1.2.5 2 1.6 2 2.9 0 .6-.2 1.2-.5 1.7L8 6.3l-2.8 1c-.3-.5-.5-1.1-.5-1.7 0-.3.1-.7.2-1zm8.4 6.7h-2.7L8 15l-2.7-3.8H2.7c-1.5 0-2.7 1.1-2.7 2.5v5c0 .7.6 1.3 1.3 1.3h13.3c.7 0 1.3-.6 1.3-1.3v-5c.1-1.3-1.1-2.4-2.6-2.4z"/>
	</symbol>
</svg>
